<svg width="934" height="1102" viewBox="0 0 934 1102" fill="none" xmlns="http://www.w3.org/2000/svg">
<g clip-path="url(#clip0_2_68)">
<g clip-path="url(#clip1_2_68)">
<path d="M465.751 263.169C463.542 263.169 461.744 261.378 461.744 259.169L461.744 187.282L461.257 180.69C461.049 177.883 460.305 175.142 459.064 172.615L457.96 170.366L452.129 161.534L444.917 152.725L431.092 135.722C429.568 133.847 430.902 131.043 433.318 131.043V131.043C434.075 131.043 434.801 131.343 435.339 131.876L452.93 149.338L461.341 159.16C466.772 165.502 469.757 173.576 469.757 181.926L469.757 259.169C469.757 261.378 467.96 263.169 465.751 263.169V263.169Z" fill="#7ABB75"/>
<path d="M442.468 138.106C436.691 132.839 444.343 115.038 459.56 98.3473C474.777 81.6566 480.482 81.496 497.574 77.6636C495.711 85.4283 495.7 100.732 480.482 117.423C465.265 134.113 448.246 143.374 442.468 138.106Z" fill="#7ABB75"/>
<path d="M437.908 146.628C439.023 154.367 421.803 163.249 399.447 166.468C377.091 169.687 372.584 166.186 356.951 158.285C363.324 153.473 373.056 141.663 395.412 138.444C417.768 135.226 436.794 138.889 437.908 146.628Z" fill="#7ABB75"/>
</g>
<path d="M724.572 660.033C724.572 984.357 681.615 984.357 467.117 984.357C252.619 984.357 200 984.357 200 660.033C200 335.708 278.085 250.586 467.117 250.586C656.149 250.586 724.572 335.708 724.572 660.033Z" fill="white"/>
<circle cx="555.408" cy="440.124" r="43.2556" fill="black"/>
<rect x="715.647" y="391.419" width="594.151" height="20.0373" rx="4" transform="rotate(90 715.647 391.419)" fill="#C0820C"/>
<rect x="789.118" y="402.889" width="173.657" height="20.6462" rx="4" transform="rotate(-180 789.118 402.889)" fill="#423B3B"/>
<rect x="615.461" y="402.889" width="178.934" height="20.0373" rx="4" transform="rotate(-90 615.461 402.889)" fill="#423B3B"/>
<rect x="615.461" y="347.833" width="173.657" height="11.4701" rx="4" fill="#423B3B"/>
<rect x="733.458" y="402.889" width="178.934" height="20.0373" rx="4" transform="rotate(-90 733.458 402.889)" fill="#423B3B"/>
<rect x="769.08" y="402.889" width="178.934" height="20.0373" rx="4" transform="rotate(-90 769.08 402.889)" fill="#423B3B"/>
<rect x="655.535" y="402.889" width="178.934" height="20.0373" rx="4" transform="rotate(-90 655.535 402.889)" fill="#423B3B"/>
<rect x="695.61" y="402.889" width="178.934" height="20.0373" rx="4" transform="rotate(-90 695.61 402.889)" fill="#423B3B"/>
<circle cx="364.301" cy="440.124" r="43.2556" fill="black"/>
</g>
<defs>
<clipPath id="clip0_2_68">
<rect width="934" height="1102" fill="white"/>
</clipPath>
<clipPath id="clip1_2_68">
<rect width="314.586" height="314.586" fill="white" transform="translate(306.173 -64)"/>
</clipPath>
</defs>
</svg>
